<?xml version="1.0" encoding="UTF-8"?>
<!DOCTYPE svg PUBLIC "-//W3C//DTD SVG 1.1//EN" "http://www.w3.org/Graphics/SVG/1.1/DTD/svg11.dtd">
<svg xmlns="http://www.w3.org/2000/svg" version="1.1" width="290px" height="314px" style="shape-rendering:geometricPrecision; text-rendering:geometricPrecision; image-rendering:optimizeQuality; fill-rule:evenodd; clip-rule:evenodd" xmlns:xlink="http://www.w3.org/1999/xlink">
<g><path style="opacity:1" fill="#122c47" d="M 137.5,-0.5 C 142.5,-0.5 147.5,-0.5 152.5,-0.5C 179.372,1.7864 203.705,10.1197 225.5,24.5C 227.463,25.8202 229.463,27.1535 231.5,28.5C 234.19,31.1846 237.19,33.5179 240.5,35.5C 245.382,40.7431 250.382,45.7431 255.5,50.5C 261.179,57.8593 266.179,65.1926 270.5,72.5C 272.316,76.6315 274.316,80.6315 276.5,84.5C 278.612,90.5234 280.612,96.1901 282.5,101.5C 284.383,107.2 285.717,113.034 286.5,119C 286.755,120.326 287.422,121.326 288.5,122C 287.919,122.893 287.585,123.893 287.5,125C 288.066,131.324 288.732,137.491 289.5,143.5C 289.5,144.167 289.5,144.833 289.5,145.5C 288.167,149.167 288.167,152.833 289.5,156.5C 289.5,156.833 289.5,157.167 289.5,157.5C 287.119,168.07 284.619,178.737 282,189.5C 278.924,198.083 275.09,206.25 270.5,214C 270.833,214.333 271.167,214.667 271.5,215C 269.958,219.31 267.625,222.81 264.5,225.5C 262.025,227.77 260.025,230.437 258.5,233.5C 257.515,236.165 255.515,238.498 252.5,240.5C 250.738,241.262 249.738,242.596 249.5,244.5C 248.508,244.328 247.842,244.662 247.5,245.5C 245.53,247.647 243.697,249.98 242,252.5C 240.042,252.209 238.542,253.209 237.5,255.5C 231.988,259.503 226.321,263.337 220.5,267C 219.748,267.671 219.414,268.504 219.5,269.5C 218.609,270.11 217.609,270.443 216.5,270.5C 216.167,269.167 215.833,269.167 215.5,270.5C 186.403,285.849 155.403,291.516 122.5,287.5C 122.5,286.833 122.167,286.5 121.5,286.5C 120.833,286.5 120.167,286.5 119.5,286.5C 118.791,285.596 117.791,285.263 116.5,285.5C 113.144,285.481 110.477,284.147 108.5,281.5C 95.9956,288.92 83.3289,296.086 70.5,303C 69.7476,303.671 69.4142,304.504 69.5,305.5C 68.391,305.557 67.391,305.89 66.5,306.5C 66.1667,305.167 65.8333,305.167 65.5,306.5C 62.5,307.833 59.5,309.167 56.5,310.5C 55.1667,310.5 53.8333,310.5 52.5,310.5C 52.5,309.5 52.5,308.5 52.5,307.5C 55.8268,278.968 61.1602,251.302 68.5,224.5C 70.0101,221.316 71.6768,218.149 73.5,215C 75.034,211.096 77.7007,207.429 81.5,204C 81.1667,203.667 80.8333,203.333 80.5,203C 84.4193,200.079 88.5859,197.579 93,195.5C 109.146,194.703 125.312,194.203 141.5,194C 145.038,193.465 148.372,192.632 151.5,191.5C 162.554,189.641 171.887,184.641 179.5,176.5C 187.245,168.858 192.578,159.692 195.5,149C 195,148.5 194.5,148 194,147.5C 184.944,153.961 174.444,157.461 162.5,158C 156.833,158.667 151.167,158.667 145.5,158C 132.7,156.477 119.867,155.31 107,154.5C 98.2185,154.527 89.7185,156.027 81.5,159C 80.3094,159.698 79.3094,160.531 78.5,161.5C 78.1667,160.167 77.8333,160.167 77.5,161.5C 74.0516,162.39 71.0516,164.057 68.5,166.5C 64.8188,168.56 62.1521,170.893 60.5,173.5C 58.8173,174.853 57.4839,176.52 56.5,178.5C 55.1667,178.833 55.1667,179.167 56.5,179.5C 54.1699,181.617 52.1699,184.117 50.5,187C 50.8333,187.333 51.1667,187.667 51.5,188C 48.7692,190.626 46.9358,193.793 46,197.5C 43.4082,204.959 41.9082,212.626 41.5,220.5C 40.6699,228.349 39.8365,236.349 39,244.5C 36.4587,240.748 33.4587,237.415 30,234.5C 29.0428,230.537 26.8762,227.37 23.5,225C 23.8333,224.667 24.1667,224.333 24.5,224C 22.2569,220.964 19.9236,218.131 17.5,215.5C 18.0431,215.44 18.3764,215.107 18.5,214.5C 16.4128,211.327 14.5795,207.994 13,204.5C 12.3457,205.696 11.8457,205.696 11.5,204.5C 11.8333,203.833 12.1667,203.167 12.5,202.5C 10.1719,198.186 8.17191,193.852 6.5,189.5C 3.11264,175.843 0.779306,161.843 -0.5,147.5C -0.5,146.833 -0.5,146.167 -0.5,145.5C 0.833333,143.5 0.833333,141.5 -0.5,139.5C -0.5,139.167 -0.5,138.833 -0.5,138.5C 1.17329,118.864 5.83995,100.198 13.5,82.5C 14.7339,80.3398 16.0672,78.1731 17.5,76C 17.1667,75.6667 16.8333,75.3333 16.5,75C 18.3945,73.2246 20.0611,71.2246 21.5,69C 21.1667,68.6667 20.8333,68.3333 20.5,68C 22.0526,66.9032 23.386,65.5699 24.5,64C 24.1667,63.6667 23.8333,63.3333 23.5,63C 25.8376,61.1691 27.8376,59.0024 29.5,56.5C 33.5872,51.3536 37.9205,46.3536 42.5,41.5C 46.8593,37.4718 51.1927,33.4718 55.5,29.5C 79.8804,11.6524 107.214,1.65242 137.5,-0.5 Z M 234.5,98.5 C 231.535,102.138 228.535,105.805 225.5,109.5C 220.88,113.41 215.88,116.743 210.5,119.5C 204.56,123.539 198.06,125.206 191,124.5C 162.572,125.329 134.072,125.829 105.5,126C 94.8483,127.359 85.8483,131.193 78.5,137.5C 76.9095,139.633 74.9095,141.299 72.5,142.5C 71.2763,138.97 71.6096,135.637 73.5,132.5C 75.4606,124.574 78.7939,117.908 83.5,112.5C 89.0761,104.095 96.4095,97.5947 105.5,93C 111.517,89.8061 117.517,88.6394 123.5,89.5C 155.458,88.6739 187.458,88.1739 219.5,88C 224.991,86.6028 230.324,84.7695 235.5,82.5C 236.086,82.7093 236.586,83.0426 237,83.5C 238.644,80.0875 241.144,79.0875 244.5,80.5C 242.167,87.1756 238.834,93.1756 234.5,98.5 Z"/></g>
<g><path style="opacity:0.008" fill="#f3f3f5" d="M 225.5,21.5 C 226.833,22.1667 226.833,22.1667 225.5,21.5 Z"/></g>
<g><path style="opacity:0.008" fill="#f5faf3" d="M 225.5,23.5 C 226.833,24.1667 226.833,24.1667 225.5,23.5 Z"/></g>
<g><path style="opacity:0.008" fill="#f4f3f3" d="M 231.5,27.5 C 232.833,28.1667 232.833,28.1667 231.5,27.5 Z"/></g>
<g><path style="opacity:0.016" fill="#f4f6f0" d="M 55.5,29.5 C 54.8333,28.1667 54.8333,28.1667 55.5,29.5 Z"/></g>
<g><path style="opacity:0.008" fill="#f4f5f3" d="M 47.5,32.5 C 48.8333,33.1667 48.8333,33.1667 47.5,32.5 Z"/></g>
<g><path style="opacity:0.031" fill="#f0f2ed" d="M 240.5,34.5 C 241.833,35.1667 241.833,35.1667 240.5,34.5 Z"/></g>
<g><path style="opacity:0.016" fill="#f4f5f0" d="M 42.5,41.5 C 41.8333,40.1667 41.8333,40.1667 42.5,41.5 Z"/></g>
<g><path style="opacity:0.016" fill="#f1f6f5" d="M 35.5,43.5 C 36.8333,44.1667 36.8333,44.1667 35.5,43.5 Z"/></g>
<g><path style="opacity:0.008" fill="#f4faf3" d="M 255.5,49.5 C 256.833,50.1667 256.833,50.1667 255.5,49.5 Z"/></g>
<g><path style="opacity:0.024" fill="#f3f3ef" d="M 29.5,56.5 C 28.8333,55.1667 28.8333,55.1667 29.5,56.5 Z"/></g>
<g><path style="opacity:0.008" fill="#f2f5f4" d="M 266.5,62.5 C 267.833,63.1667 267.833,63.1667 266.5,62.5 Z"/></g>
<g><path style="opacity:0.008" fill="#f5f8f3" d="M 17.5,69.5 C 18.8333,70.1667 18.8333,70.1667 17.5,69.5 Z"/></g>
<g><path style="opacity:0.016" fill="#f5f7f1" d="M 270.5,71.5 C 271.833,72.1667 271.833,72.1667 270.5,71.5 Z"/></g>
<g><path style="opacity:0.008" fill="#f5f9f3" d="M 13.5,82.5 C 12.8333,81.1667 12.8333,81.1667 13.5,82.5 Z"/></g>
<g><path style="opacity:0.008" fill="#f4f4f4" d="M 10.5,82.5 C 11.8333,83.1667 11.8333,83.1667 10.5,82.5 Z"/></g>
<g><path style="opacity:0.039" fill="#f3f1eb" d="M 276.5,83.5 C 277.833,84.1667 277.833,84.1667 276.5,83.5 Z"/></g>
<g><path style="opacity:0.008" fill="#f5f4f2" d="M 5.5,97.5 C 6.83333,98.1667 6.83333,98.1667 5.5,97.5 Z"/></g>
<g><path style="opacity:0.008" fill="#fbf9f2" d="M 192.5,149.5 C 193.833,150.167 193.833,150.167 192.5,149.5 Z"/></g>
<g><path style="opacity:0.008" fill="#f2f3f3" d="M 77.5,161.5 C 77.8333,161.5 78.1667,161.5 78.5,161.5C 78.3147,162.17 77.9813,162.17 77.5,161.5 Z"/></g>
<g><path style="opacity:0.008" fill="#fbfaf4" d="M 289.5,163.5 C 289.5,164.167 289.5,164.833 289.5,165.5C 288.167,164.833 288.167,164.167 289.5,163.5 Z"/></g>
<g><path style="opacity:0.008" fill="#f3f6f2" d="M 68.5,166.5 C 69.8333,167.167 69.8333,167.167 68.5,166.5 Z"/></g>
<g><path style="opacity:0.016" fill="#f3f5f0" d="M 60.5,173.5 C 61.8333,174.167 61.8333,174.167 60.5,173.5 Z"/></g>
<g><path style="opacity:0.008" fill="#f6f7f3" d="M 179.5,176.5 C 178.833,175.167 178.833,175.167 179.5,176.5 Z"/></g>
<g><path style="opacity:0.039" fill="#eef1ea" d="M 56.5,178.5 C 57.8333,179.167 57.8333,179.167 56.5,178.5 Z"/></g>
<g><path style="opacity:0.008" fill="#f4f6f3" d="M 6.5,189.5 C 5.83333,190.167 5.83333,190.167 6.5,189.5 Z"/></g>
<g><path style="opacity:0.008" fill="#f3f5f3" d="M 151.5,191.5 C 150.833,190.167 150.833,190.167 151.5,191.5 Z"/></g>
<g><path style="opacity:0.008" fill="#f3f4f3" d="M 50.5,191.5 C 51.8333,192.167 51.8333,192.167 50.5,191.5 Z"/></g>
<g><path style="opacity:0.016" fill="#f6f8f0" d="M 48.5,193.5 C 49.8333,194.167 49.8333,194.167 48.5,193.5 Z"/></g>
<g><path style="opacity:0.016" fill="#f1f1f4" d="M 71.5,211.5 C 72.8333,212.167 72.8333,212.167 71.5,211.5 Z"/></g>
<g><path style="opacity:0.008" fill="#f5f7f3" d="M 17.5,215.5 C 16.8333,214.167 16.8333,214.167 17.5,215.5 Z"/></g>
<g><path style="opacity:0.008" fill="#f8f8f3" d="M 41.5,220.5 C 42.8333,221.167 42.8333,221.167 41.5,220.5 Z"/></g>
<g><path style="opacity:0.024" fill="#f5f8ef" d="M 68.5,224.5 C 67.8333,223.167 67.8333,223.167 68.5,224.5 Z"/></g>
<g><path style="opacity:0.016" fill="#f5f4f0" d="M 264.5,225.5 C 265.833,226.167 265.833,226.167 264.5,225.5 Z"/></g>
<g><path style="opacity:0.024" fill="#f4f2ee" d="M 258.5,233.5 C 259.833,234.167 259.833,234.167 258.5,233.5 Z"/></g>
<g><path style="opacity:0.016" fill="#f5f5f1" d="M 261.5,234.5 C 262.833,235.167 262.833,235.167 261.5,234.5 Z"/></g>
<g><path style="opacity:0.031" fill="#f2f4ed" d="M 252.5,240.5 C 253.833,241.167 253.833,241.167 252.5,240.5 Z"/></g>
<g><path style="opacity:0.016" fill="#f4f3f2" d="M 247.5,245.5 C 247.842,244.662 248.508,244.328 249.5,244.5C 249.591,246.698 248.925,247.031 247.5,245.5 Z"/></g>
<g><path style="opacity:0.008" fill="#f6f8f2" d="M 237.5,255.5 C 238.833,256.167 238.833,256.167 237.5,255.5 Z"/></g>
<g><path style="opacity:0.008" fill="#f2f4f7" d="M 237.5,257.5 C 238.833,258.167 238.833,258.167 237.5,257.5 Z"/></g>
<g><path style="opacity:0.008" fill="#f2f4f5" d="M 219.5,269.5 C 220.833,270.167 220.833,270.167 219.5,269.5 Z"/></g>
<g><path style="opacity:0.024" fill="#f0f2ef" d="M 215.5,270.5 C 215.833,270.5 216.167,270.5 216.5,270.5C 216.315,271.17 215.981,271.17 215.5,270.5 Z"/></g>
<g><path style="opacity:0.106" fill="#d9dfe2" d="M 116.5,285.5 C 117.791,285.263 118.791,285.596 119.5,286.5C 119.565,286.938 119.399,287.272 119,287.5C 118.005,286.934 117.172,286.267 116.5,285.5 Z"/></g>
<g><path style="opacity:0.02" fill="#f4f1f0" d="M 121.5,286.5 C 122.167,286.5 122.5,286.833 122.5,287.5C 120.654,288.742 120.321,288.409 121.5,286.5 Z"/></g>
<g><path style="opacity:0.008" fill="#f3faf7" d="M 168.5,288.5 C 168.897,287.475 169.563,287.308 170.5,288C 169.906,288.464 169.239,288.631 168.5,288.5 Z"/></g>
<g><path style="opacity:0.016" fill="#f1f2f0" d="M 69.5,305.5 C 70.8333,306.167 70.8333,306.167 69.5,305.5 Z"/></g>
<g><path style="opacity:0.008" fill="#f2f5f3" d="M 65.5,306.5 C 65.8333,306.5 66.1667,306.5 66.5,306.5C 66.3147,307.17 65.9813,307.17 65.5,306.5 Z"/></g>
<g><path style="opacity:0.886" fill="#8c909d" d="M 52.5,307.5 C 52.5,308.5 52.5,309.5 52.5,310.5C 53.8333,310.5 55.1667,310.5 56.5,310.5C 55.3065,311.272 54.3065,312.272 53.5,313.5C 53.1667,313.5 52.8333,313.5 52.5,313.5C 51.2584,311.389 51.2584,309.389 52.5,307.5 Z"/></g>
</svg>
